<svg width="17" height="17" viewBox="0 0 17 17" fill="none" xmlns="http://www.w3.org/2000/svg">
<circle cx="8.5" cy="8.5" r="8.5" fill="url(#paint0_radial_1_276)"/>
<circle cx="8.5" cy="8.5" r="8.5" fill="url(#paint1_radial_1_276)"/>
<path d="M8.46924 3C6.98404 3 6.79761 3.00651 6.21431 3.03303C5.63211 3.05972 5.2347 3.15187 4.88699 3.28711C4.52726 3.42678 4.22216 3.61365 3.9182 3.91771C3.61398 4.22172 3.42711 4.52682 3.287 4.88639C3.15138 5.2342 3.05912 5.63178 3.03292 6.21371C3.00684 6.79706 3 6.98355 3 8.4688C3 9.95406 3.00656 10.1399 3.03303 10.7232C3.05983 11.3054 3.15198 11.7028 3.28711 12.0505C3.42689 12.4102 3.61376 12.7153 3.91782 13.0193C4.22172 13.3235 4.52682 13.5108 4.88628 13.6505C5.23426 13.7857 5.63173 13.8779 6.21382 13.9046C6.79717 13.9311 6.98344 13.9376 8.46859 13.9376C9.95395 13.9376 10.1398 13.9311 10.7231 13.9046C11.3053 13.8779 11.7031 13.7857 12.0511 13.6505C12.4107 13.5108 12.7153 13.3235 13.0192 13.0193C13.3234 12.7153 13.5102 12.4102 13.6504 12.0507C13.7848 11.7028 13.8771 11.3053 13.9045 10.7233C13.9307 10.14 13.9375 9.95406 13.9375 8.4688C13.9375 6.98355 13.9307 6.79717 13.9045 6.21382C13.8771 5.63162 13.7848 5.23426 13.6504 4.88655C13.5102 4.52682 13.3234 4.22172 13.0192 3.91771C12.715 3.61354 12.4108 3.42667 12.0508 3.28716C11.7021 3.15187 11.3045 3.05966 10.7223 3.03303C10.139 3.00651 9.95324 3 8.46755 3H8.46924ZM7.97864 3.98552C8.12427 3.9853 8.28675 3.98552 8.46924 3.98552C9.92945 3.98552 10.1025 3.99077 10.6791 4.01697C11.2123 4.04136 11.5017 4.13045 11.6945 4.20531C11.9497 4.30441 12.1317 4.42291 12.323 4.61437C12.5144 4.80578 12.6328 4.98805 12.7322 5.24328C12.8071 5.43578 12.8963 5.72519 12.9205 6.25839C12.9467 6.83491 12.9524 7.00805 12.9524 8.46755C12.9524 9.92705 12.9467 10.1002 12.9205 10.6767C12.8961 11.2099 12.8071 11.4993 12.7322 11.6919C12.6331 11.9471 12.5144 12.1288 12.323 12.3201C12.1316 12.5115 11.9498 12.63 11.6945 12.7291C11.5019 12.8043 11.2123 12.8932 10.6791 12.9176C10.1026 12.9438 9.92945 12.9495 8.46924 12.9495C7.00898 12.9495 6.83589 12.9438 6.25943 12.9176C5.72623 12.893 5.43682 12.8039 5.24388 12.729C4.98871 12.6299 4.80638 12.5114 4.61498 12.32C4.42357 12.1286 4.30512 11.9468 4.20575 11.6914C4.13088 11.4989 4.04169 11.2095 4.01741 10.6763C3.99121 10.0997 3.98596 9.92661 3.98596 8.46618C3.98596 7.0058 3.99121 6.83354 4.01741 6.25702C4.0418 5.72382 4.13088 5.43441 4.20575 5.24164C4.3049 4.98641 4.42357 4.80414 4.61503 4.61273C4.80644 4.42133 4.98871 4.30282 5.24394 4.20351C5.43671 4.12831 5.72623 4.03945 6.25943 4.01495C6.76392 3.99214 6.95943 3.9853 7.97864 3.98416V3.98552ZM11.3885 4.89355C11.0262 4.89355 10.7322 5.18723 10.7322 5.54959C10.7322 5.91189 11.0262 6.20584 11.3885 6.20584C11.7508 6.20584 12.0447 5.91189 12.0447 5.54959C12.0447 5.18728 11.7508 4.89334 11.3885 4.89334V4.89355ZM8.46924 5.66033C6.9183 5.66033 5.66082 6.91781 5.66082 8.4688C5.66082 10.0198 6.9183 11.2767 8.46924 11.2767C10.0202 11.2767 11.2773 10.0198 11.2773 8.4688C11.2773 6.91787 10.0201 5.66033 8.46913 5.66033H8.46924ZM8.46924 6.64585C9.47598 6.64585 10.2922 7.46195 10.2922 8.4688C10.2922 9.47555 9.47598 10.2918 8.46924 10.2918C7.46245 10.2918 6.64634 9.47555 6.64634 8.4688C6.64634 7.46195 7.46245 6.64585 8.46924 6.64585Z" fill="white"/>
<defs>
<radialGradient id="paint0_radial_1_276" cx="0" cy="0" r="1" gradientUnits="userSpaceOnUse" gradientTransform="translate(4.51562 18.3093) rotate(-90) scale(16.8483 15.6702)">
<stop stop-color="#FFDD55"/>
<stop offset="0.1" stop-color="#FFDD55"/>
<stop offset="0.5" stop-color="#FF543E"/>
<stop offset="1" stop-color="#C837AB"/>
</radialGradient>
<radialGradient id="paint1_radial_1_276" cx="0" cy="0" r="1" gradientUnits="userSpaceOnUse" gradientTransform="translate(-2.84757 1.2246) rotate(78.681) scale(7.53127 31.0441)">
<stop stop-color="#3771C8"/>
<stop offset="0.128" stop-color="#3771C8"/>
<stop offset="1" stop-color="#6600FF" stop-opacity="0"/>
</radialGradient>
</defs>
</svg>
